<svg width="100%" height="24" viewBox="0 0 512 333" version="1.1" xmlns="http://www.w3.org/2000/svg" xmlns:xlink="http://www.w3.org/1999/xlink" xml:space="preserve" xmlns:serif="http://www.serif.com/" style="min-width: 24px;" class="svelte-1fldv7"><g transform="matrix(1,0,0,1,-686.333,-953.365)"><g transform="matrix(-0.866025,-0.5,-0.5,0.866025,2318.33,620.811)"><g transform="matrix(1,0,0,1,-221.703,-128)"><g style=""><path d="M997.661,1344L1163.94,1248L1163.94,1056L997.661,1152L997.661,1344Z" style="fill: hsl(209, 100%, 34%);"></path><path d="M997.661,1344L942.236,1312L942.236,1120L997.661,1152" style="fill: hsl(209, 85%, 59%);"></path><path d="M1108.51,1024L1163.94,1056L997.661,1152L942.236,1120" style="fill: hsl(209, 85%, 73%);"></path></g></g><g transform="matrix(1,0,0,1,-110.851,-64)"><g style=""><path d="M997.661,1344L1163.94,1248L1163.94,1056L997.661,1152L997.661,1344Z" style="fill: hsl(209, 100%, 34%);"></path><path d="M997.661,1344L942.236,1312L942.236,1120L997.661,1152" style="fill: hsl(209, 85%, 59%);"></path><path d="M1108.51,1024L1163.94,1056L997.661,1152L942.236,1120" style="fill: hsl(209, 85%, 73%);"></path></g></g><g><g style=""><path d="M997.661,1344L1163.94,1248L1163.94,1056L997.661,1152L997.661,1344Z" style="fill: hsl(209, 100%, 34%);"></path><path d="M997.661,1344L942.236,1312L942.236,1120L997.661,1152" style="fill: hsl(209, 85%, 59%);"></path><path d="M1108.51,1024L1163.94,1056L997.661,1152L942.236,1120" style="fill: hsl(209, 85%, 73%);"></path></g></g></g></g></svg>