<svg height="51" viewBox="0 0 60 51" width="60" xmlns="http://www.w3.org/2000/svg"><path d="m8 30c2.2091 0 4 1.7909 4 4v13c0 2.2091-1.7909 4-4 4h-4c-2.20914 0-4-1.7909-4-4v-13c0-2.2091 1.79086-4 4-4zm16-19c2.2091 0 4 1.7909 4 4v32c0 2.2091-1.7909 4-4 4h-4c-2.2091 0-4-1.7909-4-4v-32c0-2.2091 1.7909-4 4-4zm16 10c2.2091 0 4 1.7909 4 4v22c0 2.2091-1.7909 4-4 4h-4c-2.2091 0-4-1.7909-4-4v-22c0-2.2091 1.7909-4 4-4zm16-21c2.2091 0 4 1.79086 4 4v43c0 2.2091-1.7909 4-4 4h-4c-2.2091 0-4-1.7909-4-4v-43c0-2.20914 1.7909-4 4-4z" fill="#0069d9"/></svg>